<mxfile host="app.diagrams.net" modified="2024-01-20T08:51:15.277Z" agent="Mozilla/5.0 (Macintosh; Intel Mac OS X 10_15_7) AppleWebKit/537.36 (KHTML, like Gecko) Chrome/120.0.0.0 Safari/537.36" etag="To2cJQGnZ7GCkgT-ex2o" version="22.1.21" type="github">
  <diagram name="第 1 页" id="GimuvHVDsZRqtL-abmID">
    <mxGraphModel dx="954" dy="727" grid="1" gridSize="10" guides="1" tooltips="1" connect="1" arrows="1" fold="1" page="1" pageScale="1" pageWidth="827" pageHeight="1169" math="0" shadow="0">
      <root>
        <mxCell id="0" />
        <mxCell id="1" parent="0" />
        <mxCell id="vYNPzPrEwY2RvoJHYPJO-3" value="" style="edgeStyle=orthogonalEdgeStyle;rounded=1;orthogonalLoop=1;jettySize=auto;html=1;fontFamily=Helvetica;fontSize=12;fontColor=default;curved=0;endArrow=none;endFill=0;strokeColor=#66B2FF;dashed=1;" edge="1" parent="1" source="vYNPzPrEwY2RvoJHYPJO-1" target="vYNPzPrEwY2RvoJHYPJO-2">
          <mxGeometry relative="1" as="geometry" />
        </mxCell>
        <mxCell id="vYNPzPrEwY2RvoJHYPJO-11" style="edgeStyle=orthogonalEdgeStyle;shape=connector;curved=0;rounded=1;orthogonalLoop=1;jettySize=auto;html=1;entryX=0;entryY=0.5;entryDx=0;entryDy=0;dashed=1;labelBackgroundColor=default;strokeColor=#66B2FF;align=center;verticalAlign=middle;fontFamily=Helvetica;fontSize=12;fontColor=default;endArrow=none;endFill=0;" edge="1" parent="1" source="vYNPzPrEwY2RvoJHYPJO-1" target="vYNPzPrEwY2RvoJHYPJO-6">
          <mxGeometry relative="1" as="geometry" />
        </mxCell>
        <mxCell id="vYNPzPrEwY2RvoJHYPJO-1" value="v1.0" style="ellipse;whiteSpace=wrap;html=1;aspect=fixed;fillColor=#dae8fc;strokeColor=#6c8ebf;labelPosition=center;verticalLabelPosition=top;align=center;verticalAlign=bottom;" vertex="1" parent="1">
          <mxGeometry x="110" y="340" width="40" height="40" as="geometry" />
        </mxCell>
        <mxCell id="vYNPzPrEwY2RvoJHYPJO-5" value="" style="edgeStyle=orthogonalEdgeStyle;shape=connector;curved=0;rounded=1;orthogonalLoop=1;jettySize=auto;html=1;dashed=1;labelBackgroundColor=default;strokeColor=#66B2FF;align=center;verticalAlign=middle;fontFamily=Helvetica;fontSize=12;fontColor=default;endArrow=none;endFill=0;" edge="1" parent="1" source="vYNPzPrEwY2RvoJHYPJO-2" target="vYNPzPrEwY2RvoJHYPJO-4">
          <mxGeometry relative="1" as="geometry" />
        </mxCell>
        <mxCell id="vYNPzPrEwY2RvoJHYPJO-2" value="v2.0" style="ellipse;whiteSpace=wrap;html=1;aspect=fixed;fillColor=#dae8fc;strokeColor=#6c8ebf;labelPosition=center;verticalLabelPosition=top;align=center;verticalAlign=bottom;" vertex="1" parent="1">
          <mxGeometry x="620" y="340" width="40" height="40" as="geometry" />
        </mxCell>
        <mxCell id="vYNPzPrEwY2RvoJHYPJO-4" value="v2.1" style="ellipse;whiteSpace=wrap;html=1;aspect=fixed;fillColor=#dae8fc;strokeColor=#6c8ebf;labelPosition=center;verticalLabelPosition=top;align=center;verticalAlign=bottom;" vertex="1" parent="1">
          <mxGeometry x="730" y="340" width="40" height="40" as="geometry" />
        </mxCell>
        <mxCell id="vYNPzPrEwY2RvoJHYPJO-8" value="" style="edgeStyle=orthogonalEdgeStyle;shape=connector;curved=0;rounded=1;orthogonalLoop=1;jettySize=auto;html=1;dashed=1;labelBackgroundColor=default;strokeColor=#66B2FF;align=center;verticalAlign=middle;fontFamily=Helvetica;fontSize=12;fontColor=default;endArrow=none;endFill=0;" edge="1" parent="1" source="vYNPzPrEwY2RvoJHYPJO-6" target="vYNPzPrEwY2RvoJHYPJO-7">
          <mxGeometry relative="1" as="geometry" />
        </mxCell>
        <mxCell id="vYNPzPrEwY2RvoJHYPJO-6" value="v1.0" style="ellipse;whiteSpace=wrap;html=1;aspect=fixed;fillColor=#e1d5e7;strokeColor=#9673a6;labelPosition=center;verticalLabelPosition=top;align=center;verticalAlign=bottom;" vertex="1" parent="1">
          <mxGeometry x="210" y="420" width="40" height="40" as="geometry" />
        </mxCell>
        <mxCell id="vYNPzPrEwY2RvoJHYPJO-10" value="" style="edgeStyle=orthogonalEdgeStyle;shape=connector;curved=0;rounded=1;orthogonalLoop=1;jettySize=auto;html=1;dashed=1;labelBackgroundColor=default;strokeColor=#66B2FF;align=center;verticalAlign=middle;fontFamily=Helvetica;fontSize=12;fontColor=default;endArrow=none;endFill=0;" edge="1" parent="1" source="vYNPzPrEwY2RvoJHYPJO-7" target="vYNPzPrEwY2RvoJHYPJO-9">
          <mxGeometry relative="1" as="geometry" />
        </mxCell>
        <mxCell id="vYNPzPrEwY2RvoJHYPJO-7" value="v1.0" style="ellipse;whiteSpace=wrap;html=1;aspect=fixed;fillColor=#e1d5e7;strokeColor=#9673a6;labelPosition=center;verticalLabelPosition=top;align=center;verticalAlign=bottom;" vertex="1" parent="1">
          <mxGeometry x="400" y="420" width="40" height="40" as="geometry" />
        </mxCell>
        <mxCell id="vYNPzPrEwY2RvoJHYPJO-12" style="edgeStyle=orthogonalEdgeStyle;shape=connector;curved=0;rounded=1;orthogonalLoop=1;jettySize=auto;html=1;entryX=0;entryY=0.5;entryDx=0;entryDy=0;dashed=1;labelBackgroundColor=default;strokeColor=#66B2FF;align=center;verticalAlign=middle;fontFamily=Helvetica;fontSize=12;fontColor=default;endArrow=none;endFill=0;" edge="1" parent="1" source="vYNPzPrEwY2RvoJHYPJO-9" target="vYNPzPrEwY2RvoJHYPJO-2">
          <mxGeometry relative="1" as="geometry" />
        </mxCell>
        <mxCell id="vYNPzPrEwY2RvoJHYPJO-9" value="v1.0" style="ellipse;whiteSpace=wrap;html=1;aspect=fixed;fillColor=#e1d5e7;strokeColor=#9673a6;labelPosition=center;verticalLabelPosition=top;align=center;verticalAlign=bottom;" vertex="1" parent="1">
          <mxGeometry x="520" y="420" width="40" height="40" as="geometry" />
        </mxCell>
      </root>
    </mxGraphModel>
  </diagram>
</mxfile>
